<svg width="234" height="142" viewBox="0 0 234 142" fill="none" xmlns="http://www.w3.org/2000/svg">
<path d="M218 71H0V106H218C226.284 106 233 99.2843 233 91V86C233 77.7157 226.284 71 218 71Z" fill="url(#paint0_linear)" stroke="white"/>
<path d="M34 1H0V36H34C42.2843 36 49 29.2843 49 21V16C49 7.71573 42.2843 1 34 1Z" fill="url(#paint1_linear)" stroke="white"/>
<path d="M116 106H0V141H116C124.284 141 131 134.284 131 126V121C131 112.716 124.284 106 116 106Z" fill="url(#paint2_linear)" stroke="white"/>
<path d="M162 36H0V71H162C170.284 71 177 64.2843 177 56V51C177 42.7157 170.284 36 162 36Z" fill="url(#paint3_linear)" stroke="white"/>
<defs>
<linearGradient id="paint0_linear" x1="224.5" y1="88" x2="15.5" y2="88" gradientUnits="userSpaceOnUse">
<stop stop-color="#F37A7A"/>
<stop offset="1" stop-color="#ED3838"/>
</linearGradient>
<linearGradient id="paint1_linear" x1="47.2124" y1="18" x2="3.25966" y2="18" gradientUnits="userSpaceOnUse">
<stop stop-color="#F37A7A"/>
<stop offset="1" stop-color="#ED3838"/>
</linearGradient>
<linearGradient id="paint2_linear" x1="126.221" y1="123" x2="8.7146" y2="123" gradientUnits="userSpaceOnUse">
<stop stop-color="#F37A7A"/>
<stop offset="1" stop-color="#ED3838"/>
</linearGradient>
<linearGradient id="paint3_linear" x1="170.543" y1="53" x2="11.7747" y2="53" gradientUnits="userSpaceOnUse">
<stop stop-color="#F37A7A"/>
<stop offset="1" stop-color="#ED3838"/>
</linearGradient>
</defs>
</svg>
