<svg width="229" height="91" viewBox="0 0 229 91" fill="none" xmlns="http://www.w3.org/2000/svg">
<path d="M213 37H-5V72H213C221.284 72 228 65.2843 228 57V52C228 43.7157 221.284 37 213 37Z" fill="url(#paint0_linear)" stroke="white"/>
<path d="M29 1H-5V36H29C37.2843 36 44 29.2843 44 21V16C44 7.71573 37.2843 1 29 1Z" fill="url(#paint1_linear)" stroke="white"/>
<path d="M111 55H-5V90H111C119.284 90 126 83.2843 126 75V70C126 61.7157 119.284 55 111 55Z" fill="url(#paint2_linear)" stroke="white"/>
<path d="M157 19H-5V54H157C165.284 54 172 47.2843 172 39V34C172 25.7157 165.284 19 157 19Z" fill="url(#paint3_linear)" stroke="white"/>
<defs>
<linearGradient id="paint0_linear" x1="219.5" y1="54" x2="10.5" y2="54" gradientUnits="userSpaceOnUse">
<stop stop-color="#F37A7A"/>
<stop offset="1" stop-color="#ED3838"/>
</linearGradient>
<linearGradient id="paint1_linear" x1="42.2124" y1="18" x2="-1.74034" y2="18" gradientUnits="userSpaceOnUse">
<stop stop-color="#F37A7A"/>
<stop offset="1" stop-color="#ED3838"/>
</linearGradient>
<linearGradient id="paint2_linear" x1="121.221" y1="72" x2="3.7146" y2="72" gradientUnits="userSpaceOnUse">
<stop stop-color="#F37A7A"/>
<stop offset="1" stop-color="#ED3838"/>
</linearGradient>
<linearGradient id="paint3_linear" x1="165.543" y1="36" x2="6.77469" y2="36" gradientUnits="userSpaceOnUse">
<stop stop-color="#F37A7A"/>
<stop offset="1" stop-color="#ED3838"/>
</linearGradient>
</defs>
</svg>
