<svg width="323" height="141" viewBox="0 0 323 141" fill="none" xmlns="http://www.w3.org/2000/svg">
<path d="M135 140L323 140V105L135 105C126.716 105 120 111.716 120 120V125C120 133.284 126.716 140 135 140Z" fill="url(#paint0_linear)" stroke="white"/>
<path d="M134 35L322 35V0L134 0C125.716 0 119 6.71573 119 15V20C119 28.2843 125.716 35 134 35Z" fill="url(#paint1_linear)" stroke="white"/>
<path d="M16 70L322 70V35L16 35C7.71573 35 1 41.7157 1 50V55C1 63.2843 7.71573 70 16 70Z" fill="url(#paint2_linear)" stroke="white"/>
<path d="M207 105L322 105V70L207 70C198.716 70 192 76.7157 192 85V90C192 98.2843 198.716 105 207 105Z" fill="url(#paint3_linear)" stroke="white"/>
<defs>
<linearGradient id="paint0_linear" x1="127.406" y1="123" x2="309.496" y2="123" gradientUnits="userSpaceOnUse">
<stop stop-color="#F37A7A"/>
<stop offset="1" stop-color="#ED3838"/>
</linearGradient>
<linearGradient id="paint1_linear" x1="126.406" y1="18" x2="308.496" y2="18" gradientUnits="userSpaceOnUse">
<stop stop-color="#F37A7A"/>
<stop offset="1" stop-color="#ED3838"/>
</linearGradient>
<linearGradient id="paint2_linear" x1="12.7103" y1="53" x2="300.646" y2="53" gradientUnits="userSpaceOnUse">
<stop stop-color="#F37A7A"/>
<stop offset="1" stop-color="#ED3838"/>
</linearGradient>
<linearGradient id="paint3_linear" x1="196.742" y1="88" x2="313.352" y2="88" gradientUnits="userSpaceOnUse">
<stop stop-color="#F37A7A"/>
<stop offset="1" stop-color="#ED3838"/>
</linearGradient>
</defs>
</svg>
