<svg width="830" height="334" viewBox="0 0 830 334" fill="none" xmlns="http://www.w3.org/2000/svg">
<path d="M109.5 4C53.2325 -10.0405 0.5 21.4999 0.5 21.4999L0 334H830C830 334 855 281 830 253.5C812.87 234.657 756.78 248.636 741 245C709.986 237.854 698.787 223.251 674.5 212.5C626.263 191.148 596.881 226.514 553.5 196.5C526.713 177.967 505.961 153.496 479.5 134.5C438.507 105.071 397.896 142.382 360.5 108.5C345.445 94.8594 326.325 82.8859 309.5 71.5C282.817 53.4433 250.686 67.3313 219 61.5C177.312 53.828 150.627 14.2624 109.5 4Z" fill="url(#paint0_linear)"/>
<defs>
<linearGradient id="paint0_linear" x1="6.99999" y1="27.5" x2="820.5" y2="323.5" gradientUnits="userSpaceOnUse">
<stop stop-color="#4C418E"/>
<stop offset="0.0001" stop-color="#4C418E"/>
<stop offset="1" stop-color="#22176A"/>
</linearGradient>
</defs>
</svg>
