<svg width="551" height="366" viewBox="0 0 551 366" fill="none" xmlns="http://www.w3.org/2000/svg">
<path d="M167.5 6.99999C213.792 -4.2678 279.332 0.7317 325.5 12.5C351 19 407.949 43.6558 418 59C447.862 104.588 444.389 111.158 485 147.5C526.745 184.857 550.417 206.98 550.5 263C550.615 340.757 457.229 367.094 379.5 365C319.613 363.386 300.109 310.409 241.5 298C174.864 283.892 123.527 348.734 67.5 310C10.6674 270.709 -22.2167 195.82 18.5 140C36.8842 114.796 68.3448 110.208 95 94C139.047 67.2166 117.412 19.1917 167.5 6.99999Z" fill="white"/>
</svg>
